HIERARCHY
ROOT Hips
{
	OFFSET 0.000000 0.000000 0.000000
	CHANNELS 6 Xposition Yposition Zposition Xrotation Yrotation Zrotation
	JOINT LeftUpLeg_virtual
	{
		OFFSET 0.000000 0.000000 0.000000
		CHANNELS 3 Xrotation Yrotation Zrotation
		JOINT LeftUpLeg
		{
			OFFSET 10.205400 -3.823500 0.155100
			CHANNELS 3 Xrotation Yrotation Zrotation
			JOINT LeftLeg
			{
				OFFSET 0.708757 -12.982077 0.567790
				CHANNELS 3 Xrotation Yrotation Zrotation
				JOINT LeftFoot
				{
					OFFSET -0.708756 -10.717838 -2.184338
					CHANNELS 3 Xrotation Yrotation Zrotation
					JOINT LeftToeBase
					{
						OFFSET 0.108149 -7.191104 7.560241
						CHANNELS 3 Xrotation Yrotation Zrotation
						JOINT LeftToe_End
						{
							OFFSET 0.070230 0.081724 4.490308
							CHANNELS 3 Xrotation Yrotation Zrotation
							End Site
							{
								OFFSET 0 0 0
							}
						}
					}
				}
			}
		}
	}
	JOINT RightUpLeg_virtual
	{
		OFFSET 0.000000 0.000000 0.000000
		CHANNELS 3 Xrotation Yrotation Zrotation
		JOINT RightUpLeg
		{
			OFFSET -10.205400 -3.823500 0.005500
			CHANNELS 3 Xrotation Yrotation Zrotation
			JOINT RightLeg
			{
				OFFSET -0.708756 -12.982134 0.610632
				CHANNELS 3 Xrotation Yrotation Zrotation
				JOINT RightFoot
				{
					OFFSET 0.708754 -10.717769 -1.945823
					CHANNELS 3 Xrotation Yrotation Zrotation
					JOINT RightToeBase
					{
						OFFSET -0.108140 -7.191069 7.372968
						CHANNELS 3 Xrotation Yrotation Zrotation
						JOINT RightToe_End
						{
							OFFSET -0.070227 0.081735 4.479403
							CHANNELS 3 Xrotation Yrotation Zrotation
							End Site
							{
								OFFSET 0 0 0
							}
						}
					}
				}
			}
		}
	}
	JOINT Spine_virtual
	{
		OFFSET 0.000000 0.000000 0.000000
		CHANNELS 3 Xrotation Yrotation Zrotation
		JOINT Spine
		{
			OFFSET 0.000000 6.876099 0.125700
			CHANNELS 3 Xrotation Yrotation Zrotation
			JOINT Spine1
			{
				OFFSET 0.000000 5.730043 0.104720
				CHANNELS 3 Xrotation Yrotation Zrotation
				JOINT Spine1_split
				{
					OFFSET 0.000000 5.730043 0.104720
					CHANNELS 3 Xrotation Yrotation Zrotation
					JOINT Spine2
					{
						OFFSET 0.000000 5.730043 0.104720
						CHANNELS 3 Xrotation Yrotation Zrotation
						JOINT Neck_virtual
						{
							OFFSET 0.000000 0.000000 0.000000
							CHANNELS 3 Xrotation Yrotation Zrotation
							JOINT Neck
							{
								OFFSET 0.000000 10.314075 0.188496
								CHANNELS 3 Xrotation Yrotation Zrotation
								JOINT Head
								{
									OFFSET 0.000000 7.643700 -2.377400
									CHANNELS 3 Xrotation Yrotation Zrotation
									JOINT HeadTop_End
									{
										OFFSET 0.000000 43.788605 -13.619600
										CHANNELS 3 Xrotation Yrotation Zrotation
										End Site
										{
											OFFSET 0 0 0
										}
									}
								}
							}
						}
						JOINT LeftShoulder_virtual
						{
							OFFSET 0.000000 0.000000 0.000000
							CHANNELS 3 Xrotation Yrotation Zrotation
							JOINT LeftShoulder
							{
								OFFSET 2.196100 4.412489 0.087492
								CHANNELS 3 Xrotation Yrotation Zrotation
								JOINT LeftShoulder_split
								{
									OFFSET 2.196100 4.412489 0.087492
									CHANNELS 3 Xrotation Yrotation Zrotation
									JOINT LeftArm
									{
										OFFSET 8.771219 -2.981674 -0.026999
										CHANNELS 3 Xrotation Yrotation Zrotation
										JOINT LeftForeArm
										{
											OFFSET 8.512804 0.000000 -0.000000
											CHANNELS 3 Xrotation Yrotation Zrotation
											JOINT LeftHand
											{
												OFFSET 18.484802 0.000000 -0.000000
												CHANNELS 3 Xrotation Yrotation Zrotation
												End Site
												{
													OFFSET 0 0 0
												}
											}
										}
									}
								}
							}
						}
						JOINT RightShoulder_virtual
						{
							OFFSET 0.000000 0.000000 0.000000
							CHANNELS 3 Xrotation Yrotation Zrotation
							JOINT RightShoulder
							{
								OFFSET -2.196100 4.412496 0.070690
								CHANNELS 3 Xrotation Yrotation Zrotation
								JOINT RightShoulder_split
								{
									OFFSET -2.196100 4.412496 0.070690
									CHANNELS 3 Xrotation Yrotation Zrotation
									JOINT RightArm
									{
										OFFSET -8.771282 -2.981682 -0.094208
										CHANNELS 3 Xrotation Yrotation Zrotation
										JOINT RightForeArm
										{
											OFFSET -8.494598 0.000000 0.000000
											CHANNELS 3 Xrotation Yrotation Zrotation
											JOINT RightHand
											{
												OFFSET -18.483803 0.000000 0.000001
												CHANNELS 3 Xrotation Yrotation Zrotation
												End Site
												{
													OFFSET 0 0 0
												}
											}
										}
									}
								}
							}
						}
					}
				}
			}
		}
	}
}
MOTION
Frames: 4
Frame Time: 0.03333333
1.016910 26.770121 1.481258 0.000000 0.000000 0.000000 -1.022569 -47.163689 3.210394 -36.552925 9.912846 21.306601 60.703969 -10.868582 -0.689068 -30.399994 -7.972101 -11.034397 -2.110299 -0.546377 0.969994 0.000000 0.000000 0.000000 -2.262415 -46.203286 3.613417 -16.467296 -12.343180 -37.659232 60.912214 0.946242 -5.776529 -33.083988 -16.829292 31.438736 -2.155271 -1.117404 -0.451307 0.000000 0.000000 0.000000 -0.472512 -47.135497 4.275775 8.743995 11.628042 -2.653990 0.662280 3.947818 -1.762982 0.419303 -1.649588 1.179144 0.000000 0.000000 0.000000 1.981275 4.003243 -1.779316 -8.687624 11.914136 4.141967 6.422581 16.961984 1.254263 0.000000 0.000000 0.000000 1.572712 4.057759 -1.388114 0.815556 0.257446 -4.264323 -0.663470 -3.920906 1.453028 6.115755 1.442828 -39.021820 178.302430 -49.491015 178.631727 0.000000 0.000000 0.000000 1.274014 3.648365 -1.651543 1.402808 13.491028 -4.685879 -6.803623 -1.636622 2.414578 -60.185428 21.081963 64.628568 -166.110829 79.328139 164.867256 0.000000 0.000000 0.000000 
1.222651 26.819641 1.515465 0.000000 0.000000 0.000000 -0.808752 -51.831806 2.904994 -33.515766 10.493787 21.763085 60.066739 -10.006530 -1.989938 -33.641018 -4.375684 -9.679225 -2.459877 -0.617305 1.328093 0.000000 0.000000 0.000000 -1.907240 -50.390185 3.471280 -19.993193 -7.600974 -37.136172 61.438235 2.425739 -6.984243 -31.708477 -14.461351 31.563137 -1.601114 -0.879028 -0.616262 0.000000 0.000000 0.000000 0.152024 -50.883195 4.350432 8.998971 11.032256 -1.812191 0.966570 3.826413 -1.693339 0.454257 -1.434575 1.021640 0.000000 0.000000 0.000000 2.310160 3.910747 -1.687432 -8.846515 13.024787 3.830547 5.472911 19.959877 -0.495013 0.000000 0.000000 0.000000 1.581961 3.962048 -1.294319 1.023757 0.748229 -2.339360 -0.019471 -4.375832 0.569901 2.014097 5.850386 -34.035502 178.696190 -54.147619 178.888255 0.000000 0.000000 0.000000 1.275095 3.547945 -1.496878 1.153717 10.959928 -2.685967 -6.112704 -1.825440 2.565877 -61.226977 23.733439 69.917511 -172.346314 74.797005 171.000958 0.000000 0.000000 0.000000 
1.378085 26.803715 1.511890 0.000000 0.000000 0.000000 -0.572054 -56.493222 2.248098 -31.079977 10.111608 22.389072 60.452297 -9.199315 -2.378447 -36.634088 -0.954876 -8.738014 -2.601858 -0.631615 1.420044 0.000000 0.000000 0.000000 -1.604675 -54.285626 2.859192 -22.783483 -3.939604 -35.824872 60.740626 3.702637 -7.860542 -30.525761 -12.332405 31.523580 -1.244492 -0.537555 -0.807304 0.000000 0.000000 0.000000 0.920272 -54.217427 3.996753 9.184368 9.927332 -1.184975 1.278728 3.262006 -1.627195 0.787843 -1.257267 0.863288 0.000000 0.000000 0.000000 2.604482 3.272994 -1.553903 -8.935102 14.423939 3.517511 4.877141 23.058536 -2.442174 0.000000 0.000000 0.000000 1.673144 3.322210 -1.233459 1.135405 1.089010 -0.058094 -0.022361 -2.954737 -0.248190 -6.716970 6.274811 -26.536994 178.590691 -66.467071 178.836605 0.000000 0.000000 0.000000 1.393484 2.964644 -1.453121 0.944040 9.320609 -1.051684 -5.606553 -2.594006 2.441118 -61.671076 26.465786 74.355946 -176.164430 70.695607 174.578870 0.000000 0.000000 0.000000 
1.465695 26.754623 1.413671 0.000000 0.000000 0.000000 -0.631183 -59.904721 1.165400 -29.830028 8.721920 23.091898 61.686382 -8.809219 -1.746543 -38.650087 1.797650 -8.812740 -2.324423 -0.573108 1.269052 0.000000 0.000000 0.000000 -1.653797 -57.092896 1.682002 -24.186605 -2.092357 -34.075810 59.099366 4.370816 -8.246646 -29.934148 -10.845972 31.074574 -1.059953 -0.162619 -0.863277 0.000000 0.000000 0.000000 1.449723 -56.502719 3.148426 9.260043 8.298894 -0.761603 1.489453 2.248289 -1.606787 1.193499 -0.983850 0.631532 0.000000 0.000000 0.000000 2.727822 2.098693 -1.500872 -8.803890 15.923382 3.304409 5.095091 25.939841 -4.458890 0.000000 0.000000 0.000000 2.009231 2.126907 -1.290561 1.194847 1.150119 2.059060 -0.915904 -0.202058 -0.885745 -17.650249 1.798407 -19.177016 171.241872 -86.175254 171.564708 0.000000 0.000000 0.000000 1.601597 1.872545 -1.543328 0.802148 8.587521 0.192900 -5.768700 -3.360751 1.935397 -60.001354 29.357707 77.490026 -178.580965 66.746371 176.639019 0.000000 0.000000 0.000000 
